<?xml version="1.0" encoding="UTF-8"?>
<!-- This file is part of the qt-classic-styles Project.
     License: LGPL-2.1-or-later. Contact: qt-classic-styles-project@trinity2k.net
     Generated by make_photon_aurorae.py; edit the generator. -->
<svg xmlns="http://www.w3.org/2000/svg" width="15" height="126" viewBox="0 0 15 126">
  <g id="active-center">
    <rect x="0" y="0" width="15" height="1" fill="#ffffff"/>
    <rect x="0" y="1" width="15" height="1" fill="#c5c5c5"/>
    <rect x="0" y="2" width="14" height="1" fill="#bababa"/>
    <rect x="14" y="2" width="1" height="1" fill="#f6f6f6"/>
    <rect x="0" y="3" width="1" height="1" fill="#bababa"/>
    <rect x="1" y="3" width="1" height="1" fill="#3e3c3e"/>
    <rect x="2" y="3" width="1" height="1" fill="#403e40"/>
    <rect x="3" y="3" width="11" height="1" fill="#3f3d3f"/>
    <rect x="14" y="3" width="1" height="1" fill="#f6f6f6"/>
    <rect x="0" y="4" width="1" height="1" fill="#bababa"/>
    <rect x="1" y="4" width="1" height="1" fill="#403e40"/>
    <rect x="2" y="4" width="10" height="1" fill="#edebed"/>
    <rect x="12" y="4" width="1" height="1" fill="#d0ced0"/>
    <rect x="13" y="4" width="1" height="1" fill="#3f3d3f"/>
    <rect x="14" y="4" width="1" height="1" fill="#f6f6f6"/>
    <rect x="0" y="5" width="1" height="1" fill="#bababa"/>
    <rect x="1" y="5" width="1" height="1" fill="#3f3d3f"/>
    <rect x="2" y="5" width="1" height="1" fill="#ebe9eb"/>
    <rect x="3" y="5" width="8" height="1" fill="#dfdddf"/>
    <rect x="11" y="5" width="1" height="1" fill="#dedcde"/>
    <rect x="12" y="5" width="1" height="1" fill="#b3b1b3"/>
    <rect x="13" y="5" width="1" height="1" fill="#3f3d3f"/>
    <rect x="14" y="5" width="1" height="1" fill="#f6f6f6"/>
    <rect x="0" y="6" width="1" height="1" fill="#bababa"/>
    <rect x="1" y="6" width="1" height="1" fill="#3e3c3e"/>
    <rect x="2" y="6" width="1" height="1" fill="#b8b6b8"/>
    <rect x="3" y="6" width="9" height="1" fill="#b0aeb0"/>
    <rect x="12" y="6" width="1" height="1" fill="#aeacae"/>
    <rect x="13" y="6" width="1" height="1" fill="#3f3d3f"/>
    <rect x="14" y="6" width="1" height="1" fill="#f6f6f6"/>
    <rect x="0" y="7" width="1" height="1" fill="#bababa"/>
    <rect x="1" y="7" width="1" height="1" fill="#3f3d3f"/>
    <rect x="2" y="7" width="1" height="1" fill="#f3f1f3"/>
    <rect x="3" y="7" width="9" height="1" fill="#eceaec"/>
    <rect x="12" y="7" width="1" height="1" fill="#d9d7d9"/>
    <rect x="13" y="7" width="1" height="1" fill="#3e3c3e"/>
    <rect x="14" y="7" width="1" height="1" fill="#f6f6f6"/>
    <rect x="0" y="8" width="1" height="1" fill="#bababa"/>
    <rect x="1" y="8" width="1" height="1" fill="#3f3d3f"/>
    <rect x="2" y="8" width="1" height="1" fill="#e2e1e0"/>
    <rect x="3" y="8" width="8" height="1" fill="#d2d0d2"/>
    <rect x="11" y="8" width="1" height="1" fill="#d1cfd1"/>
    <rect x="12" y="8" width="1" height="1" fill="#a8a6a8"/>
    <rect x="13" y="8" width="1" height="1" fill="#403f3e"/>
    <rect x="14" y="8" width="1" height="1" fill="#f6f6f6"/>
    <rect x="0" y="9" width="1" height="1" fill="#bababa"/>
    <rect x="1" y="9" width="1" height="1" fill="#3e3c3e"/>
    <rect x="2" y="9" width="1" height="1" fill="#dfdedd"/>
    <rect x="3" y="9" width="8" height="1" fill="#cdcbcd"/>
    <rect x="11" y="9" width="1" height="1" fill="#cccacc"/>
    <rect x="12" y="9" width="1" height="1" fill="#a4a2a4"/>
    <rect x="13" y="9" width="1" height="1" fill="#3e3d3c"/>
    <rect x="14" y="9" width="1" height="1" fill="#f6f6f6"/>
    <rect x="0" y="10" width="1" height="1" fill="#bababa"/>
    <rect x="1" y="10" width="1" height="1" fill="#3f3d3f"/>
    <rect x="2" y="10" width="1" height="1" fill="#dcdbda"/>
    <rect x="3" y="10" width="8" height="1" fill="#c8c6c8"/>
    <rect x="11" y="10" width="1" height="1" fill="#c9c7c9"/>
    <rect x="12" y="10" width="1" height="1" fill="#a19fa1"/>
    <rect x="13" y="10" width="1" height="1" fill="#3f3e3d"/>
    <rect x="14" y="10" width="1" height="1" fill="#f6f6f6"/>
    <rect x="0" y="11" width="1" height="1" fill="#bababa"/>
    <rect x="1" y="11" width="1" height="1" fill="#3f3d3f"/>
    <rect x="2" y="11" width="1" height="1" fill="#e4e3e2"/>
    <rect x="3" y="11" width="9" height="1" fill="#c3c1c3"/>
    <rect x="12" y="11" width="1" height="1" fill="#9c9a9c"/>
    <rect x="13" y="11" width="1" height="1" fill="#3f3e3d"/>
    <rect x="14" y="11" width="1" height="1" fill="#f6f6f6"/>
    <rect x="0" y="12" width="1" height="1" fill="#bababa"/>
    <rect x="1" y="12" width="1" height="1" fill="#3f3d3f"/>
    <rect x="2" y="12" width="1" height="1" fill="#e4e3e2"/>
    <rect x="3" y="12" width="9" height="1" fill="#bebcbe"/>
    <rect x="12" y="12" width="1" height="1" fill="#9d9b9d"/>
    <rect x="13" y="12" width="1" height="1" fill="#3e3d3c"/>
    <rect x="14" y="12" width="1" height="1" fill="#f6f6f6"/>
    <rect x="0" y="13" width="1" height="1" fill="#bababa"/>
    <rect x="1" y="13" width="1" height="1" fill="#3e3c3e"/>
    <rect x="2" y="13" width="1" height="1" fill="#e4e3e2"/>
    <rect x="3" y="13" width="9" height="1" fill="#bbb9bb"/>
    <rect x="12" y="13" width="1" height="1" fill="#9c9a9c"/>
    <rect x="13" y="13" width="1" height="1" fill="#3f3e3d"/>
    <rect x="14" y="13" width="1" height="1" fill="#f6f6f6"/>
    <rect x="0" y="14" width="1" height="1" fill="#bababa"/>
    <rect x="1" y="14" width="1" height="1" fill="#3f3d3f"/>
    <rect x="2" y="14" width="1" height="1" fill="#d0cfce"/>
    <rect x="3" y="14" width="9" height="1" fill="#939193"/>
    <rect x="12" y="14" width="1" height="1" fill="#9c9a9c"/>
    <rect x="13" y="14" width="1" height="1" fill="#3e3d3c"/>
    <rect x="14" y="14" width="1" height="1" fill="#f6f6f6"/>
    <rect x="0" y="15" width="1" height="1" fill="#bababa"/>
    <rect x="1" y="15" width="1" height="1" fill="#3f3d3f"/>
    <rect x="2" y="15" width="1" height="1" fill="#3f3e3d"/>
    <rect x="3" y="15" width="10" height="1" fill="#3f3d3f"/>
    <rect x="13" y="15" width="1" height="1" fill="#3f3e3d"/>
    <rect x="14" y="15" width="1" height="1" fill="#f6f6f6"/>
    <rect x="0" y="16" width="1" height="1" fill="#bababa"/>
    <rect x="1" y="16" width="14" height="1" fill="#f6f6f6"/>
    <rect x="0" y="17" width="15" height="1" fill="#d8d8d8"/>
    <rect x="0" y="18" width="15" height="1" fill="#a6a6a6"/>
  </g>
  <g id="pressed-center">
    <rect x="0" y="21" width="15" height="1" fill="#ffffff"/>
    <rect x="0" y="22" width="15" height="1" fill="#c5c5c5"/>
    <rect x="0" y="23" width="14" height="1" fill="#bababa"/>
    <rect x="14" y="23" width="1" height="1" fill="#f6f6f6"/>
    <rect x="0" y="24" width="1" height="1" fill="#bababa"/>
    <rect x="1" y="24" width="1" height="1" fill="#3e3c3e"/>
    <rect x="2" y="24" width="1" height="1" fill="#403e40"/>
    <rect x="3" y="24" width="11" height="1" fill="#3f3d3f"/>
    <rect x="14" y="24" width="1" height="1" fill="#f6f6f6"/>
    <rect x="0" y="25" width="1" height="1" fill="#bababa"/>
    <rect x="1" y="25" width="1" height="1" fill="#403e40"/>
    <rect x="2" y="25" width="10" height="1" fill="#d5d3d5"/>
    <rect x="12" y="25" width="1" height="1" fill="#b8b6b8"/>
    <rect x="13" y="25" width="1" height="1" fill="#3f3d3f"/>
    <rect x="14" y="25" width="1" height="1" fill="#f6f6f6"/>
    <rect x="0" y="26" width="1" height="1" fill="#bababa"/>
    <rect x="1" y="26" width="1" height="1" fill="#3f3d3f"/>
    <rect x="2" y="26" width="1" height="1" fill="#d3d1d3"/>
    <rect x="3" y="26" width="8" height="1" fill="#c7c5c7"/>
    <rect x="11" y="26" width="1" height="1" fill="#c6c4c6"/>
    <rect x="12" y="26" width="1" height="1" fill="#9b999b"/>
    <rect x="13" y="26" width="1" height="1" fill="#3f3d3f"/>
    <rect x="14" y="26" width="1" height="1" fill="#f6f6f6"/>
    <rect x="0" y="27" width="1" height="1" fill="#bababa"/>
    <rect x="1" y="27" width="1" height="1" fill="#3e3c3e"/>
    <rect x="2" y="27" width="1" height="1" fill="#a09ea0"/>
    <rect x="3" y="27" width="9" height="1" fill="#989698"/>
    <rect x="12" y="27" width="1" height="1" fill="#969496"/>
    <rect x="13" y="27" width="1" height="1" fill="#3f3d3f"/>
    <rect x="14" y="27" width="1" height="1" fill="#f6f6f6"/>
    <rect x="0" y="28" width="1" height="1" fill="#bababa"/>
    <rect x="1" y="28" width="1" height="1" fill="#3f3d3f"/>
    <rect x="2" y="28" width="1" height="1" fill="#dbd9db"/>
    <rect x="3" y="28" width="9" height="1" fill="#d4d2d4"/>
    <rect x="12" y="28" width="1" height="1" fill="#c1bfc1"/>
    <rect x="13" y="28" width="1" height="1" fill="#3e3c3e"/>
    <rect x="14" y="28" width="1" height="1" fill="#f6f6f6"/>
    <rect x="0" y="29" width="1" height="1" fill="#bababa"/>
    <rect x="1" y="29" width="1" height="1" fill="#3f3d3f"/>
    <rect x="2" y="29" width="1" height="1" fill="#cac9c8"/>
    <rect x="3" y="29" width="8" height="1" fill="#bab8ba"/>
    <rect x="11" y="29" width="1" height="1" fill="#b9b7b9"/>
    <rect x="12" y="29" width="1" height="1" fill="#908e90"/>
    <rect x="13" y="29" width="1" height="1" fill="#403f3e"/>
    <rect x="14" y="29" width="1" height="1" fill="#f6f6f6"/>
    <rect x="0" y="30" width="1" height="1" fill="#bababa"/>
    <rect x="1" y="30" width="1" height="1" fill="#3e3c3e"/>
    <rect x="2" y="30" width="1" height="1" fill="#c7c6c5"/>
    <rect x="3" y="30" width="8" height="1" fill="#b5b3b5"/>
    <rect x="11" y="30" width="1" height="1" fill="#b4b2b4"/>
    <rect x="12" y="30" width="1" height="1" fill="#8c8a8c"/>
    <rect x="13" y="30" width="1" height="1" fill="#3e3d3c"/>
    <rect x="14" y="30" width="1" height="1" fill="#f6f6f6"/>
    <rect x="0" y="31" width="1" height="1" fill="#bababa"/>
    <rect x="1" y="31" width="1" height="1" fill="#3f3d3f"/>
    <rect x="2" y="31" width="1" height="1" fill="#c4c3c2"/>
    <rect x="3" y="31" width="8" height="1" fill="#b0aeb0"/>
    <rect x="11" y="31" width="1" height="1" fill="#b1afb1"/>
    <rect x="12" y="31" width="1" height="1" fill="#898789"/>
    <rect x="13" y="31" width="1" height="1" fill="#3f3e3d"/>
    <rect x="14" y="31" width="1" height="1" fill="#f6f6f6"/>
    <rect x="0" y="32" width="1" height="1" fill="#bababa"/>
    <rect x="1" y="32" width="1" height="1" fill="#3f3d3f"/>
    <rect x="2" y="32" width="1" height="1" fill="#cccbca"/>
    <rect x="3" y="32" width="9" height="1" fill="#aba9ab"/>
    <rect x="12" y="32" width="1" height="1" fill="#848284"/>
    <rect x="13" y="32" width="1" height="1" fill="#3f3e3d"/>
    <rect x="14" y="32" width="1" height="1" fill="#f6f6f6"/>
    <rect x="0" y="33" width="1" height="1" fill="#bababa"/>
    <rect x="1" y="33" width="1" height="1" fill="#3f3d3f"/>
    <rect x="2" y="33" width="1" height="1" fill="#cccbca"/>
    <rect x="3" y="33" width="9" height="1" fill="#a6a4a6"/>
    <rect x="12" y="33" width="1" height="1" fill="#858385"/>
    <rect x="13" y="33" width="1" height="1" fill="#3e3d3c"/>
    <rect x="14" y="33" width="1" height="1" fill="#f6f6f6"/>
    <rect x="0" y="34" width="1" height="1" fill="#bababa"/>
    <rect x="1" y="34" width="1" height="1" fill="#3e3c3e"/>
    <rect x="2" y="34" width="1" height="1" fill="#cccbca"/>
    <rect x="3" y="34" width="9" height="1" fill="#a3a1a3"/>
    <rect x="12" y="34" width="1" height="1" fill="#848284"/>
    <rect x="13" y="34" width="1" height="1" fill="#3f3e3d"/>
    <rect x="14" y="34" width="1" height="1" fill="#f6f6f6"/>
    <rect x="0" y="35" width="1" height="1" fill="#bababa"/>
    <rect x="1" y="35" width="1" height="1" fill="#3f3d3f"/>
    <rect x="2" y="35" width="1" height="1" fill="#b8b7b6"/>
    <rect x="3" y="35" width="9" height="1" fill="#7b797b"/>
    <rect x="12" y="35" width="1" height="1" fill="#848284"/>
    <rect x="13" y="35" width="1" height="1" fill="#3e3d3c"/>
    <rect x="14" y="35" width="1" height="1" fill="#f6f6f6"/>
    <rect x="0" y="36" width="1" height="1" fill="#bababa"/>
    <rect x="1" y="36" width="1" height="1" fill="#3f3d3f"/>
    <rect x="2" y="36" width="1" height="1" fill="#3f3e3d"/>
    <rect x="3" y="36" width="10" height="1" fill="#3f3d3f"/>
    <rect x="13" y="36" width="1" height="1" fill="#3f3e3d"/>
    <rect x="14" y="36" width="1" height="1" fill="#f6f6f6"/>
    <rect x="0" y="37" width="1" height="1" fill="#bababa"/>
    <rect x="1" y="37" width="14" height="1" fill="#f6f6f6"/>
    <rect x="0" y="38" width="15" height="1" fill="#d8d8d8"/>
    <rect x="0" y="39" width="15" height="1" fill="#a6a6a6"/>
  </g>
  <g id="deactivated-center">
    <rect x="0" y="42" width="15" height="1" fill="#ffffff"/>
    <rect x="0" y="43" width="15" height="1" fill="#c5c5c5"/>
    <rect x="0" y="44" width="14" height="1" fill="#bababa"/>
    <rect x="14" y="44" width="1" height="1" fill="#f6f6f6"/>
    <rect x="0" y="45" width="1" height="1" fill="#bababa"/>
    <rect x="1" y="45" width="1" height="1" fill="#3e3c3e"/>
    <rect x="2" y="45" width="1" height="1" fill="#403e40"/>
    <rect x="3" y="45" width="11" height="1" fill="#3f3d3f"/>
    <rect x="14" y="45" width="1" height="1" fill="#f6f6f6"/>
    <rect x="0" y="46" width="1" height="1" fill="#bababa"/>
    <rect x="1" y="46" width="1" height="1" fill="#403e40"/>
    <rect x="2" y="46" width="10" height="1" fill="#edebed"/>
    <rect x="12" y="46" width="1" height="1" fill="#d0ced0"/>
    <rect x="13" y="46" width="1" height="1" fill="#3f3d3f"/>
    <rect x="14" y="46" width="1" height="1" fill="#f6f6f6"/>
    <rect x="0" y="47" width="1" height="1" fill="#bababa"/>
    <rect x="1" y="47" width="1" height="1" fill="#3f3d3f"/>
    <rect x="2" y="47" width="1" height="1" fill="#ebe9eb"/>
    <rect x="3" y="47" width="8" height="1" fill="#dfdddf"/>
    <rect x="11" y="47" width="1" height="1" fill="#dedcde"/>
    <rect x="12" y="47" width="1" height="1" fill="#b3b1b3"/>
    <rect x="13" y="47" width="1" height="1" fill="#3f3d3f"/>
    <rect x="14" y="47" width="1" height="1" fill="#f6f6f6"/>
    <rect x="0" y="48" width="1" height="1" fill="#bababa"/>
    <rect x="1" y="48" width="1" height="1" fill="#3e3c3e"/>
    <rect x="2" y="48" width="1" height="1" fill="#b8b6b8"/>
    <rect x="3" y="48" width="9" height="1" fill="#b0aeb0"/>
    <rect x="12" y="48" width="1" height="1" fill="#aeacae"/>
    <rect x="13" y="48" width="1" height="1" fill="#3f3d3f"/>
    <rect x="14" y="48" width="1" height="1" fill="#f6f6f6"/>
    <rect x="0" y="49" width="1" height="1" fill="#bababa"/>
    <rect x="1" y="49" width="1" height="1" fill="#3f3d3f"/>
    <rect x="2" y="49" width="1" height="1" fill="#f3f1f3"/>
    <rect x="3" y="49" width="9" height="1" fill="#eceaec"/>
    <rect x="12" y="49" width="1" height="1" fill="#d9d7d9"/>
    <rect x="13" y="49" width="1" height="1" fill="#3e3c3e"/>
    <rect x="14" y="49" width="1" height="1" fill="#f6f6f6"/>
    <rect x="0" y="50" width="1" height="1" fill="#bababa"/>
    <rect x="1" y="50" width="1" height="1" fill="#3f3d3f"/>
    <rect x="2" y="50" width="1" height="1" fill="#e2e1e0"/>
    <rect x="3" y="50" width="8" height="1" fill="#d2d0d2"/>
    <rect x="11" y="50" width="1" height="1" fill="#d1cfd1"/>
    <rect x="12" y="50" width="1" height="1" fill="#a8a6a8"/>
    <rect x="13" y="50" width="1" height="1" fill="#403f3e"/>
    <rect x="14" y="50" width="1" height="1" fill="#f6f6f6"/>
    <rect x="0" y="51" width="1" height="1" fill="#bababa"/>
    <rect x="1" y="51" width="1" height="1" fill="#3e3c3e"/>
    <rect x="2" y="51" width="1" height="1" fill="#dfdedd"/>
    <rect x="3" y="51" width="8" height="1" fill="#cdcbcd"/>
    <rect x="11" y="51" width="1" height="1" fill="#cccacc"/>
    <rect x="12" y="51" width="1" height="1" fill="#a4a2a4"/>
    <rect x="13" y="51" width="1" height="1" fill="#3e3d3c"/>
    <rect x="14" y="51" width="1" height="1" fill="#f6f6f6"/>
    <rect x="0" y="52" width="1" height="1" fill="#bababa"/>
    <rect x="1" y="52" width="1" height="1" fill="#3f3d3f"/>
    <rect x="2" y="52" width="1" height="1" fill="#dcdbda"/>
    <rect x="3" y="52" width="8" height="1" fill="#c8c6c8"/>
    <rect x="11" y="52" width="1" height="1" fill="#c9c7c9"/>
    <rect x="12" y="52" width="1" height="1" fill="#a19fa1"/>
    <rect x="13" y="52" width="1" height="1" fill="#3f3e3d"/>
    <rect x="14" y="52" width="1" height="1" fill="#f6f6f6"/>
    <rect x="0" y="53" width="1" height="1" fill="#bababa"/>
    <rect x="1" y="53" width="1" height="1" fill="#3f3d3f"/>
    <rect x="2" y="53" width="1" height="1" fill="#e4e3e2"/>
    <rect x="3" y="53" width="9" height="1" fill="#c3c1c3"/>
    <rect x="12" y="53" width="1" height="1" fill="#9c9a9c"/>
    <rect x="13" y="53" width="1" height="1" fill="#3f3e3d"/>
    <rect x="14" y="53" width="1" height="1" fill="#f6f6f6"/>
    <rect x="0" y="54" width="1" height="1" fill="#bababa"/>
    <rect x="1" y="54" width="1" height="1" fill="#3f3d3f"/>
    <rect x="2" y="54" width="1" height="1" fill="#e4e3e2"/>
    <rect x="3" y="54" width="9" height="1" fill="#bebcbe"/>
    <rect x="12" y="54" width="1" height="1" fill="#9d9b9d"/>
    <rect x="13" y="54" width="1" height="1" fill="#3e3d3c"/>
    <rect x="14" y="54" width="1" height="1" fill="#f6f6f6"/>
    <rect x="0" y="55" width="1" height="1" fill="#bababa"/>
    <rect x="1" y="55" width="1" height="1" fill="#3e3c3e"/>
    <rect x="2" y="55" width="1" height="1" fill="#e4e3e2"/>
    <rect x="3" y="55" width="9" height="1" fill="#bbb9bb"/>
    <rect x="12" y="55" width="1" height="1" fill="#9c9a9c"/>
    <rect x="13" y="55" width="1" height="1" fill="#3f3e3d"/>
    <rect x="14" y="55" width="1" height="1" fill="#f6f6f6"/>
    <rect x="0" y="56" width="1" height="1" fill="#bababa"/>
    <rect x="1" y="56" width="1" height="1" fill="#3f3d3f"/>
    <rect x="2" y="56" width="1" height="1" fill="#d0cfce"/>
    <rect x="3" y="56" width="9" height="1" fill="#939193"/>
    <rect x="12" y="56" width="1" height="1" fill="#9c9a9c"/>
    <rect x="13" y="56" width="1" height="1" fill="#3e3d3c"/>
    <rect x="14" y="56" width="1" height="1" fill="#f6f6f6"/>
    <rect x="0" y="57" width="1" height="1" fill="#bababa"/>
    <rect x="1" y="57" width="1" height="1" fill="#3f3d3f"/>
    <rect x="2" y="57" width="1" height="1" fill="#3f3e3d"/>
    <rect x="3" y="57" width="10" height="1" fill="#3f3d3f"/>
    <rect x="13" y="57" width="1" height="1" fill="#3f3e3d"/>
    <rect x="14" y="57" width="1" height="1" fill="#f6f6f6"/>
    <rect x="0" y="58" width="1" height="1" fill="#bababa"/>
    <rect x="1" y="58" width="14" height="1" fill="#f6f6f6"/>
    <rect x="0" y="59" width="15" height="1" fill="#d8d8d8"/>
    <rect x="0" y="60" width="15" height="1" fill="#a6a6a6"/>
  </g>
  <g id="inactive-center">
    <rect x="0" y="63" width="15" height="1" fill="#ffffff"/>
    <rect x="0" y="64" width="15" height="1" fill="#c5c5c5"/>
    <rect x="0" y="65" width="14" height="1" fill="#bababa"/>
    <rect x="14" y="65" width="1" height="1" fill="#f6f6f6"/>
    <rect x="0" y="66" width="1" height="1" fill="#bababa"/>
    <rect x="1" y="66" width="1" height="1" fill="#3e3c3e"/>
    <rect x="2" y="66" width="1" height="1" fill="#403e40"/>
    <rect x="3" y="66" width="11" height="1" fill="#3f3d3f"/>
    <rect x="14" y="66" width="1" height="1" fill="#f6f6f6"/>
    <rect x="0" y="67" width="1" height="1" fill="#bababa"/>
    <rect x="1" y="67" width="1" height="1" fill="#403e40"/>
    <rect x="2" y="67" width="10" height="1" fill="#edebed"/>
    <rect x="12" y="67" width="1" height="1" fill="#d0ced0"/>
    <rect x="13" y="67" width="1" height="1" fill="#3f3d3f"/>
    <rect x="14" y="67" width="1" height="1" fill="#f6f6f6"/>
    <rect x="0" y="68" width="1" height="1" fill="#bababa"/>
    <rect x="1" y="68" width="1" height="1" fill="#3f3d3f"/>
    <rect x="2" y="68" width="1" height="1" fill="#ebe9eb"/>
    <rect x="3" y="68" width="8" height="1" fill="#dfdddf"/>
    <rect x="11" y="68" width="1" height="1" fill="#dedcde"/>
    <rect x="12" y="68" width="1" height="1" fill="#b3b1b3"/>
    <rect x="13" y="68" width="1" height="1" fill="#3f3d3f"/>
    <rect x="14" y="68" width="1" height="1" fill="#f6f6f6"/>
    <rect x="0" y="69" width="1" height="1" fill="#bababa"/>
    <rect x="1" y="69" width="1" height="1" fill="#3e3c3e"/>
    <rect x="2" y="69" width="1" height="1" fill="#b8b6b8"/>
    <rect x="3" y="69" width="9" height="1" fill="#b0aeb0"/>
    <rect x="12" y="69" width="1" height="1" fill="#aeacae"/>
    <rect x="13" y="69" width="1" height="1" fill="#3f3d3f"/>
    <rect x="14" y="69" width="1" height="1" fill="#f6f6f6"/>
    <rect x="0" y="70" width="1" height="1" fill="#bababa"/>
    <rect x="1" y="70" width="1" height="1" fill="#3f3d3f"/>
    <rect x="2" y="70" width="1" height="1" fill="#f3f1f3"/>
    <rect x="3" y="70" width="9" height="1" fill="#eceaec"/>
    <rect x="12" y="70" width="1" height="1" fill="#d9d7d9"/>
    <rect x="13" y="70" width="1" height="1" fill="#3e3c3e"/>
    <rect x="14" y="70" width="1" height="1" fill="#f6f6f6"/>
    <rect x="0" y="71" width="1" height="1" fill="#bababa"/>
    <rect x="1" y="71" width="1" height="1" fill="#3f3d3f"/>
    <rect x="2" y="71" width="1" height="1" fill="#e2e1e0"/>
    <rect x="3" y="71" width="8" height="1" fill="#d2d0d2"/>
    <rect x="11" y="71" width="1" height="1" fill="#d1cfd1"/>
    <rect x="12" y="71" width="1" height="1" fill="#a8a6a8"/>
    <rect x="13" y="71" width="1" height="1" fill="#403f3e"/>
    <rect x="14" y="71" width="1" height="1" fill="#f6f6f6"/>
    <rect x="0" y="72" width="1" height="1" fill="#bababa"/>
    <rect x="1" y="72" width="1" height="1" fill="#3e3c3e"/>
    <rect x="2" y="72" width="1" height="1" fill="#dfdedd"/>
    <rect x="3" y="72" width="8" height="1" fill="#cdcbcd"/>
    <rect x="11" y="72" width="1" height="1" fill="#cccacc"/>
    <rect x="12" y="72" width="1" height="1" fill="#a4a2a4"/>
    <rect x="13" y="72" width="1" height="1" fill="#3e3d3c"/>
    <rect x="14" y="72" width="1" height="1" fill="#f6f6f6"/>
    <rect x="0" y="73" width="1" height="1" fill="#bababa"/>
    <rect x="1" y="73" width="1" height="1" fill="#3f3d3f"/>
    <rect x="2" y="73" width="1" height="1" fill="#dcdbda"/>
    <rect x="3" y="73" width="8" height="1" fill="#c8c6c8"/>
    <rect x="11" y="73" width="1" height="1" fill="#c9c7c9"/>
    <rect x="12" y="73" width="1" height="1" fill="#a19fa1"/>
    <rect x="13" y="73" width="1" height="1" fill="#3f3e3d"/>
    <rect x="14" y="73" width="1" height="1" fill="#f6f6f6"/>
    <rect x="0" y="74" width="1" height="1" fill="#bababa"/>
    <rect x="1" y="74" width="1" height="1" fill="#3f3d3f"/>
    <rect x="2" y="74" width="1" height="1" fill="#e4e3e2"/>
    <rect x="3" y="74" width="9" height="1" fill="#c3c1c3"/>
    <rect x="12" y="74" width="1" height="1" fill="#9c9a9c"/>
    <rect x="13" y="74" width="1" height="1" fill="#3f3e3d"/>
    <rect x="14" y="74" width="1" height="1" fill="#f6f6f6"/>
    <rect x="0" y="75" width="1" height="1" fill="#bababa"/>
    <rect x="1" y="75" width="1" height="1" fill="#3f3d3f"/>
    <rect x="2" y="75" width="1" height="1" fill="#e4e3e2"/>
    <rect x="3" y="75" width="9" height="1" fill="#bebcbe"/>
    <rect x="12" y="75" width="1" height="1" fill="#9d9b9d"/>
    <rect x="13" y="75" width="1" height="1" fill="#3e3d3c"/>
    <rect x="14" y="75" width="1" height="1" fill="#f6f6f6"/>
    <rect x="0" y="76" width="1" height="1" fill="#bababa"/>
    <rect x="1" y="76" width="1" height="1" fill="#3e3c3e"/>
    <rect x="2" y="76" width="1" height="1" fill="#e4e3e2"/>
    <rect x="3" y="76" width="9" height="1" fill="#bbb9bb"/>
    <rect x="12" y="76" width="1" height="1" fill="#9c9a9c"/>
    <rect x="13" y="76" width="1" height="1" fill="#3f3e3d"/>
    <rect x="14" y="76" width="1" height="1" fill="#f6f6f6"/>
    <rect x="0" y="77" width="1" height="1" fill="#bababa"/>
    <rect x="1" y="77" width="1" height="1" fill="#3f3d3f"/>
    <rect x="2" y="77" width="1" height="1" fill="#d0cfce"/>
    <rect x="3" y="77" width="9" height="1" fill="#939193"/>
    <rect x="12" y="77" width="1" height="1" fill="#9c9a9c"/>
    <rect x="13" y="77" width="1" height="1" fill="#3e3d3c"/>
    <rect x="14" y="77" width="1" height="1" fill="#f6f6f6"/>
    <rect x="0" y="78" width="1" height="1" fill="#bababa"/>
    <rect x="1" y="78" width="1" height="1" fill="#3f3d3f"/>
    <rect x="2" y="78" width="1" height="1" fill="#3f3e3d"/>
    <rect x="3" y="78" width="10" height="1" fill="#3f3d3f"/>
    <rect x="13" y="78" width="1" height="1" fill="#3f3e3d"/>
    <rect x="14" y="78" width="1" height="1" fill="#f6f6f6"/>
    <rect x="0" y="79" width="1" height="1" fill="#bababa"/>
    <rect x="1" y="79" width="14" height="1" fill="#f6f6f6"/>
    <rect x="0" y="80" width="15" height="1" fill="#d8d8d8"/>
    <rect x="0" y="81" width="15" height="1" fill="#a6a6a6"/>
  </g>
  <g id="pressed-inactive-center">
    <rect x="0" y="84" width="15" height="1" fill="#ffffff"/>
    <rect x="0" y="85" width="15" height="1" fill="#c5c5c5"/>
    <rect x="0" y="86" width="14" height="1" fill="#bababa"/>
    <rect x="14" y="86" width="1" height="1" fill="#f6f6f6"/>
    <rect x="0" y="87" width="1" height="1" fill="#bababa"/>
    <rect x="1" y="87" width="1" height="1" fill="#3e3c3e"/>
    <rect x="2" y="87" width="1" height="1" fill="#403e40"/>
    <rect x="3" y="87" width="11" height="1" fill="#3f3d3f"/>
    <rect x="14" y="87" width="1" height="1" fill="#f6f6f6"/>
    <rect x="0" y="88" width="1" height="1" fill="#bababa"/>
    <rect x="1" y="88" width="1" height="1" fill="#403e40"/>
    <rect x="2" y="88" width="10" height="1" fill="#d5d3d5"/>
    <rect x="12" y="88" width="1" height="1" fill="#b8b6b8"/>
    <rect x="13" y="88" width="1" height="1" fill="#3f3d3f"/>
    <rect x="14" y="88" width="1" height="1" fill="#f6f6f6"/>
    <rect x="0" y="89" width="1" height="1" fill="#bababa"/>
    <rect x="1" y="89" width="1" height="1" fill="#3f3d3f"/>
    <rect x="2" y="89" width="1" height="1" fill="#d3d1d3"/>
    <rect x="3" y="89" width="8" height="1" fill="#c7c5c7"/>
    <rect x="11" y="89" width="1" height="1" fill="#c6c4c6"/>
    <rect x="12" y="89" width="1" height="1" fill="#9b999b"/>
    <rect x="13" y="89" width="1" height="1" fill="#3f3d3f"/>
    <rect x="14" y="89" width="1" height="1" fill="#f6f6f6"/>
    <rect x="0" y="90" width="1" height="1" fill="#bababa"/>
    <rect x="1" y="90" width="1" height="1" fill="#3e3c3e"/>
    <rect x="2" y="90" width="1" height="1" fill="#a09ea0"/>
    <rect x="3" y="90" width="9" height="1" fill="#989698"/>
    <rect x="12" y="90" width="1" height="1" fill="#969496"/>
    <rect x="13" y="90" width="1" height="1" fill="#3f3d3f"/>
    <rect x="14" y="90" width="1" height="1" fill="#f6f6f6"/>
    <rect x="0" y="91" width="1" height="1" fill="#bababa"/>
    <rect x="1" y="91" width="1" height="1" fill="#3f3d3f"/>
    <rect x="2" y="91" width="1" height="1" fill="#dbd9db"/>
    <rect x="3" y="91" width="9" height="1" fill="#d4d2d4"/>
    <rect x="12" y="91" width="1" height="1" fill="#c1bfc1"/>
    <rect x="13" y="91" width="1" height="1" fill="#3e3c3e"/>
    <rect x="14" y="91" width="1" height="1" fill="#f6f6f6"/>
    <rect x="0" y="92" width="1" height="1" fill="#bababa"/>
    <rect x="1" y="92" width="1" height="1" fill="#3f3d3f"/>
    <rect x="2" y="92" width="1" height="1" fill="#cac9c8"/>
    <rect x="3" y="92" width="8" height="1" fill="#bab8ba"/>
    <rect x="11" y="92" width="1" height="1" fill="#b9b7b9"/>
    <rect x="12" y="92" width="1" height="1" fill="#908e90"/>
    <rect x="13" y="92" width="1" height="1" fill="#403f3e"/>
    <rect x="14" y="92" width="1" height="1" fill="#f6f6f6"/>
    <rect x="0" y="93" width="1" height="1" fill="#bababa"/>
    <rect x="1" y="93" width="1" height="1" fill="#3e3c3e"/>
    <rect x="2" y="93" width="1" height="1" fill="#c7c6c5"/>
    <rect x="3" y="93" width="8" height="1" fill="#b5b3b5"/>
    <rect x="11" y="93" width="1" height="1" fill="#b4b2b4"/>
    <rect x="12" y="93" width="1" height="1" fill="#8c8a8c"/>
    <rect x="13" y="93" width="1" height="1" fill="#3e3d3c"/>
    <rect x="14" y="93" width="1" height="1" fill="#f6f6f6"/>
    <rect x="0" y="94" width="1" height="1" fill="#bababa"/>
    <rect x="1" y="94" width="1" height="1" fill="#3f3d3f"/>
    <rect x="2" y="94" width="1" height="1" fill="#c4c3c2"/>
    <rect x="3" y="94" width="8" height="1" fill="#b0aeb0"/>
    <rect x="11" y="94" width="1" height="1" fill="#b1afb1"/>
    <rect x="12" y="94" width="1" height="1" fill="#898789"/>
    <rect x="13" y="94" width="1" height="1" fill="#3f3e3d"/>
    <rect x="14" y="94" width="1" height="1" fill="#f6f6f6"/>
    <rect x="0" y="95" width="1" height="1" fill="#bababa"/>
    <rect x="1" y="95" width="1" height="1" fill="#3f3d3f"/>
    <rect x="2" y="95" width="1" height="1" fill="#cccbca"/>
    <rect x="3" y="95" width="9" height="1" fill="#aba9ab"/>
    <rect x="12" y="95" width="1" height="1" fill="#848284"/>
    <rect x="13" y="95" width="1" height="1" fill="#3f3e3d"/>
    <rect x="14" y="95" width="1" height="1" fill="#f6f6f6"/>
    <rect x="0" y="96" width="1" height="1" fill="#bababa"/>
    <rect x="1" y="96" width="1" height="1" fill="#3f3d3f"/>
    <rect x="2" y="96" width="1" height="1" fill="#cccbca"/>
    <rect x="3" y="96" width="9" height="1" fill="#a6a4a6"/>
    <rect x="12" y="96" width="1" height="1" fill="#858385"/>
    <rect x="13" y="96" width="1" height="1" fill="#3e3d3c"/>
    <rect x="14" y="96" width="1" height="1" fill="#f6f6f6"/>
    <rect x="0" y="97" width="1" height="1" fill="#bababa"/>
    <rect x="1" y="97" width="1" height="1" fill="#3e3c3e"/>
    <rect x="2" y="97" width="1" height="1" fill="#cccbca"/>
    <rect x="3" y="97" width="9" height="1" fill="#a3a1a3"/>
    <rect x="12" y="97" width="1" height="1" fill="#848284"/>
    <rect x="13" y="97" width="1" height="1" fill="#3f3e3d"/>
    <rect x="14" y="97" width="1" height="1" fill="#f6f6f6"/>
    <rect x="0" y="98" width="1" height="1" fill="#bababa"/>
    <rect x="1" y="98" width="1" height="1" fill="#3f3d3f"/>
    <rect x="2" y="98" width="1" height="1" fill="#b8b7b6"/>
    <rect x="3" y="98" width="9" height="1" fill="#7b797b"/>
    <rect x="12" y="98" width="1" height="1" fill="#848284"/>
    <rect x="13" y="98" width="1" height="1" fill="#3e3d3c"/>
    <rect x="14" y="98" width="1" height="1" fill="#f6f6f6"/>
    <rect x="0" y="99" width="1" height="1" fill="#bababa"/>
    <rect x="1" y="99" width="1" height="1" fill="#3f3d3f"/>
    <rect x="2" y="99" width="1" height="1" fill="#3f3e3d"/>
    <rect x="3" y="99" width="10" height="1" fill="#3f3d3f"/>
    <rect x="13" y="99" width="1" height="1" fill="#3f3e3d"/>
    <rect x="14" y="99" width="1" height="1" fill="#f6f6f6"/>
    <rect x="0" y="100" width="1" height="1" fill="#bababa"/>
    <rect x="1" y="100" width="14" height="1" fill="#f6f6f6"/>
    <rect x="0" y="101" width="15" height="1" fill="#d8d8d8"/>
    <rect x="0" y="102" width="15" height="1" fill="#a6a6a6"/>
  </g>
  <g id="deactivated-inactive-center">
    <rect x="0" y="105" width="15" height="1" fill="#ffffff"/>
    <rect x="0" y="106" width="15" height="1" fill="#c5c5c5"/>
    <rect x="0" y="107" width="14" height="1" fill="#bababa"/>
    <rect x="14" y="107" width="1" height="1" fill="#f6f6f6"/>
    <rect x="0" y="108" width="1" height="1" fill="#bababa"/>
    <rect x="1" y="108" width="1" height="1" fill="#3e3c3e"/>
    <rect x="2" y="108" width="1" height="1" fill="#403e40"/>
    <rect x="3" y="108" width="11" height="1" fill="#3f3d3f"/>
    <rect x="14" y="108" width="1" height="1" fill="#f6f6f6"/>
    <rect x="0" y="109" width="1" height="1" fill="#bababa"/>
    <rect x="1" y="109" width="1" height="1" fill="#403e40"/>
    <rect x="2" y="109" width="10" height="1" fill="#edebed"/>
    <rect x="12" y="109" width="1" height="1" fill="#d0ced0"/>
    <rect x="13" y="109" width="1" height="1" fill="#3f3d3f"/>
    <rect x="14" y="109" width="1" height="1" fill="#f6f6f6"/>
    <rect x="0" y="110" width="1" height="1" fill="#bababa"/>
    <rect x="1" y="110" width="1" height="1" fill="#3f3d3f"/>
    <rect x="2" y="110" width="1" height="1" fill="#ebe9eb"/>
    <rect x="3" y="110" width="8" height="1" fill="#dfdddf"/>
    <rect x="11" y="110" width="1" height="1" fill="#dedcde"/>
    <rect x="12" y="110" width="1" height="1" fill="#b3b1b3"/>
    <rect x="13" y="110" width="1" height="1" fill="#3f3d3f"/>
    <rect x="14" y="110" width="1" height="1" fill="#f6f6f6"/>
    <rect x="0" y="111" width="1" height="1" fill="#bababa"/>
    <rect x="1" y="111" width="1" height="1" fill="#3e3c3e"/>
    <rect x="2" y="111" width="1" height="1" fill="#b8b6b8"/>
    <rect x="3" y="111" width="9" height="1" fill="#b0aeb0"/>
    <rect x="12" y="111" width="1" height="1" fill="#aeacae"/>
    <rect x="13" y="111" width="1" height="1" fill="#3f3d3f"/>
    <rect x="14" y="111" width="1" height="1" fill="#f6f6f6"/>
    <rect x="0" y="112" width="1" height="1" fill="#bababa"/>
    <rect x="1" y="112" width="1" height="1" fill="#3f3d3f"/>
    <rect x="2" y="112" width="1" height="1" fill="#f3f1f3"/>
    <rect x="3" y="112" width="9" height="1" fill="#eceaec"/>
    <rect x="12" y="112" width="1" height="1" fill="#d9d7d9"/>
    <rect x="13" y="112" width="1" height="1" fill="#3e3c3e"/>
    <rect x="14" y="112" width="1" height="1" fill="#f6f6f6"/>
    <rect x="0" y="113" width="1" height="1" fill="#bababa"/>
    <rect x="1" y="113" width="1" height="1" fill="#3f3d3f"/>
    <rect x="2" y="113" width="1" height="1" fill="#e2e1e0"/>
    <rect x="3" y="113" width="8" height="1" fill="#d2d0d2"/>
    <rect x="11" y="113" width="1" height="1" fill="#d1cfd1"/>
    <rect x="12" y="113" width="1" height="1" fill="#a8a6a8"/>
    <rect x="13" y="113" width="1" height="1" fill="#403f3e"/>
    <rect x="14" y="113" width="1" height="1" fill="#f6f6f6"/>
    <rect x="0" y="114" width="1" height="1" fill="#bababa"/>
    <rect x="1" y="114" width="1" height="1" fill="#3e3c3e"/>
    <rect x="2" y="114" width="1" height="1" fill="#dfdedd"/>
    <rect x="3" y="114" width="8" height="1" fill="#cdcbcd"/>
    <rect x="11" y="114" width="1" height="1" fill="#cccacc"/>
    <rect x="12" y="114" width="1" height="1" fill="#a4a2a4"/>
    <rect x="13" y="114" width="1" height="1" fill="#3e3d3c"/>
    <rect x="14" y="114" width="1" height="1" fill="#f6f6f6"/>
    <rect x="0" y="115" width="1" height="1" fill="#bababa"/>
    <rect x="1" y="115" width="1" height="1" fill="#3f3d3f"/>
    <rect x="2" y="115" width="1" height="1" fill="#dcdbda"/>
    <rect x="3" y="115" width="8" height="1" fill="#c8c6c8"/>
    <rect x="11" y="115" width="1" height="1" fill="#c9c7c9"/>
    <rect x="12" y="115" width="1" height="1" fill="#a19fa1"/>
    <rect x="13" y="115" width="1" height="1" fill="#3f3e3d"/>
    <rect x="14" y="115" width="1" height="1" fill="#f6f6f6"/>
    <rect x="0" y="116" width="1" height="1" fill="#bababa"/>
    <rect x="1" y="116" width="1" height="1" fill="#3f3d3f"/>
    <rect x="2" y="116" width="1" height="1" fill="#e4e3e2"/>
    <rect x="3" y="116" width="9" height="1" fill="#c3c1c3"/>
    <rect x="12" y="116" width="1" height="1" fill="#9c9a9c"/>
    <rect x="13" y="116" width="1" height="1" fill="#3f3e3d"/>
    <rect x="14" y="116" width="1" height="1" fill="#f6f6f6"/>
    <rect x="0" y="117" width="1" height="1" fill="#bababa"/>
    <rect x="1" y="117" width="1" height="1" fill="#3f3d3f"/>
    <rect x="2" y="117" width="1" height="1" fill="#e4e3e2"/>
    <rect x="3" y="117" width="9" height="1" fill="#bebcbe"/>
    <rect x="12" y="117" width="1" height="1" fill="#9d9b9d"/>
    <rect x="13" y="117" width="1" height="1" fill="#3e3d3c"/>
    <rect x="14" y="117" width="1" height="1" fill="#f6f6f6"/>
    <rect x="0" y="118" width="1" height="1" fill="#bababa"/>
    <rect x="1" y="118" width="1" height="1" fill="#3e3c3e"/>
    <rect x="2" y="118" width="1" height="1" fill="#e4e3e2"/>
    <rect x="3" y="118" width="9" height="1" fill="#bbb9bb"/>
    <rect x="12" y="118" width="1" height="1" fill="#9c9a9c"/>
    <rect x="13" y="118" width="1" height="1" fill="#3f3e3d"/>
    <rect x="14" y="118" width="1" height="1" fill="#f6f6f6"/>
    <rect x="0" y="119" width="1" height="1" fill="#bababa"/>
    <rect x="1" y="119" width="1" height="1" fill="#3f3d3f"/>
    <rect x="2" y="119" width="1" height="1" fill="#d0cfce"/>
    <rect x="3" y="119" width="9" height="1" fill="#939193"/>
    <rect x="12" y="119" width="1" height="1" fill="#9c9a9c"/>
    <rect x="13" y="119" width="1" height="1" fill="#3e3d3c"/>
    <rect x="14" y="119" width="1" height="1" fill="#f6f6f6"/>
    <rect x="0" y="120" width="1" height="1" fill="#bababa"/>
    <rect x="1" y="120" width="1" height="1" fill="#3f3d3f"/>
    <rect x="2" y="120" width="1" height="1" fill="#3f3e3d"/>
    <rect x="3" y="120" width="10" height="1" fill="#3f3d3f"/>
    <rect x="13" y="120" width="1" height="1" fill="#3f3e3d"/>
    <rect x="14" y="120" width="1" height="1" fill="#f6f6f6"/>
    <rect x="0" y="121" width="1" height="1" fill="#bababa"/>
    <rect x="1" y="121" width="14" height="1" fill="#f6f6f6"/>
    <rect x="0" y="122" width="15" height="1" fill="#d8d8d8"/>
    <rect x="0" y="123" width="15" height="1" fill="#a6a6a6"/>
  </g>
</svg>
